<svg width="25" height="25" viewBox="0 0 25 25" fill="none" xmlns="http://www.w3.org/2000/svg">
<path d="M8.05664 19.5586C8.05664 19.4609 7.95898 19.3633 7.8125 19.3633C7.66602 19.3633 7.56836 19.4609 7.56836 19.5586C7.56836 19.6562 7.66602 19.7539 7.8125 19.7051C7.95898 19.7051 8.05664 19.6562 8.05664 19.5586ZM6.54297 19.3145C6.54297 19.4121 6.64062 19.5586 6.78711 19.5586C6.88477 19.6074 7.03125 19.5586 7.08008 19.4609C7.08008 19.3633 7.03125 19.2656 6.88477 19.2168C6.73828 19.168 6.5918 19.2168 6.54297 19.3145ZM8.74023 19.2656C8.59375 19.2656 8.49609 19.3633 8.49609 19.5098C8.49609 19.6074 8.64258 19.6562 8.78906 19.6074C8.93555 19.5586 9.0332 19.5098 8.98438 19.4121C8.98438 19.3145 8.83789 19.2168 8.74023 19.2656ZM11.9141 0.515625C5.17578 0.515625 0 5.69141 0 12.4297C0 17.8496 3.36914 22.4883 8.25195 24.1484C8.88672 24.2461 9.08203 23.8555 9.08203 23.5625C9.08203 23.2207 9.08203 21.5605 9.08203 20.5352C9.08203 20.5352 5.66406 21.2676 4.93164 19.0703C4.93164 19.0703 4.39453 17.6543 3.61328 17.3125C3.61328 17.3125 2.49023 16.5312 3.66211 16.5312C3.66211 16.5312 4.88281 16.6289 5.56641 17.8008C6.64062 19.7051 8.39844 19.168 9.13086 18.8262C9.22852 18.0449 9.52148 17.5078 9.91211 17.166C7.17773 16.873 4.39453 16.4824 4.39453 11.7949C4.39453 10.4277 4.78516 9.79297 5.56641 8.91406C5.41992 8.57227 5.0293 7.30273 5.71289 5.59375C6.68945 5.30078 9.08203 6.91211 9.08203 6.91211C10.0586 6.61914 11.084 6.52148 12.1094 6.52148C13.1836 6.52148 14.209 6.61914 15.1855 6.91211C15.1855 6.91211 17.5293 5.25195 18.5547 5.59375C19.2383 7.30273 18.7988 8.57227 18.7012 8.91406C19.4824 9.79297 19.9707 10.4277 19.9707 11.7949C19.9707 16.4824 17.0898 16.873 14.3555 17.166C14.7949 17.5566 15.1855 18.2891 15.1855 19.4609C15.1855 21.0723 15.1367 23.123 15.1367 23.5137C15.1367 23.8555 15.3809 24.2461 16.0156 24.0996C20.8984 22.4883 24.2188 17.8496 24.2188 12.4297C24.2188 5.69141 18.7012 0.515625 11.9141 0.515625ZM4.73633 17.3613C4.63867 17.4102 4.6875 17.5566 4.73633 17.6543C4.83398 17.7031 4.93164 17.752 5.0293 17.7031C5.07812 17.6543 5.07812 17.5078 4.98047 17.4102C4.88281 17.3613 4.78516 17.3125 4.73633 17.3613ZM4.19922 16.9707C4.15039 17.0684 4.19922 17.1172 4.29688 17.166C4.39453 17.2148 4.49219 17.2148 4.54102 17.1172C4.54102 17.0684 4.49219 17.0195 4.39453 16.9707C4.29688 16.9219 4.24805 16.9219 4.19922 16.9707ZM5.76172 18.7285C5.71289 18.7773 5.71289 18.9238 5.85938 19.0215C5.95703 19.1191 6.10352 19.168 6.15234 19.0703C6.20117 19.0215 6.20117 18.875 6.10352 18.7773C6.00586 18.6797 5.85938 18.6309 5.76172 18.7285ZM5.22461 17.9961C5.12695 18.0449 5.12695 18.1914 5.22461 18.2891C5.32227 18.3867 5.41992 18.4355 5.51758 18.3867C5.56641 18.3379 5.56641 18.1914 5.51758 18.0938C5.41992 17.9961 5.32227 17.9473 5.22461 17.9961Z" fill="black"/>
</svg>
